<svg fill="#FAB005" xmlns="http://www.w3.org/2000/svg"  viewBox="0 0 100 100" width="100px" height="100px"><path d="M 50.003906 25.998047 C 49.570531 25.998047 49.135891 26.141234 48.775391 26.427734 L 25.005859 44.90625 L 26.232422 46.480469 L 30.003906 43.560547 L 30.003906 61 C 30.003906 66.52 25.522906 71 20.003906 71 L 0.00390625 71 L 0.00390625 75 L 20.003906 75 C 20.486969 75 20.96309 74.975523 21.433594 74.927734 C 28.491156 74.210902 34.003906 68.249688 34.003906 61 L 34.003906 42.972656 L 50.003906 30.533203 L 66.003906 42.972656 L 66.003906 61 C 66.003906 65.774687 68.396008 69.988386 72.046875 72.517578 C 72.290266 72.686191 72.538719 72.846688 72.792969 73 L 57.013672 73 L 57.013672 53 C 57.013672 52.453 56.564672 52 56.013672 52 L 44.005859 52 C 43.453859 52 43.005859 52.453 43.005859 53 L 43.005859 73 L 30.580078 73 C 29.714078 73.76 28.762141 74.44 27.744141 75 L 100.00195 75 L 100.00391 71 L 80.003906 71 C 74.484906 71 70.003906 66.52 70.003906 61 L 70.003906 43.560547 L 73.765625 46.480469 L 74.992188 44.90625 L 51.230469 26.427734 C 50.869469 26.141234 50.437281 25.998047 50.003906 25.998047 z M 45.007812 54 L 55.015625 54 L 55.015625 73 L 45.007812 73 L 45.007812 54 z"/></svg>